<svg width="256" height="256" viewBox="0 0 256 256" fill="none" xmlns="http://www.w3.org/2000/svg">
<g clip-path="url(#clip0_821_7)">
<path d="M196 0H60C26.8629 0 0 26.8629 0 60V196C0 229.137 26.8629 256 60 256H196C229.137 256 256 229.137 256 196V60C256 26.8629 229.137 0 196 0Z" fill="white"/>
<path d="M225.896 66.3477C223.779 65.3144 222.862 67.2894 221.629 68.2977C221.204 68.6227 220.846 69.0477 220.487 69.431C217.388 72.7393 213.771 74.9059 209.046 74.6476C202.138 74.2642 196.238 76.4309 191.021 81.7141C189.913 75.1975 186.23 71.3143 180.63 68.8143C177.697 67.5144 174.73 66.2227 172.672 63.3978C171.238 61.3895 170.847 59.1479 170.13 56.9479C169.672 55.6146 169.213 54.2563 167.688 54.0313C166.022 53.773 165.372 55.1646 164.722 56.3313C162.114 61.0978 161.105 66.3477 161.205 71.6643C161.43 83.6307 166.48 93.1639 176.522 99.9387C177.663 100.714 177.955 101.497 177.597 102.63C176.913 104.964 176.097 107.23 175.38 109.572C174.922 111.063 174.238 111.38 172.638 110.739C167.232 108.415 162.322 105.077 158.172 100.905C151.03 94.0055 144.581 86.389 136.531 80.4224C134.666 79.0443 132.75 77.7351 130.789 76.4975C122.581 68.5227 131.873 61.9728 134.022 61.1978C136.272 60.3812 134.797 57.5979 127.531 57.6312C120.264 57.6646 113.615 60.0895 105.14 63.3311C103.88 63.8137 102.585 64.1955 101.265 64.4728C93.3452 62.9806 85.2455 62.694 77.2403 63.6228C61.5322 65.3727 48.9908 72.8059 39.766 85.4807C28.6829 100.714 26.0746 118.03 29.2662 136.08C32.6245 155.113 42.341 170.871 57.2657 183.187C72.7487 195.962 90.5733 202.22 110.915 201.02C123.264 200.312 137.022 198.653 152.53 185.52C156.447 187.47 160.547 188.245 167.363 188.829C172.613 189.32 177.663 188.579 181.572 187.762C187.696 186.462 187.271 180.787 185.063 179.754C167.105 171.387 171.047 174.796 167.455 172.037C176.588 161.238 190.338 150.021 195.721 113.68C196.138 110.789 195.78 108.972 195.721 106.639C195.688 105.222 196.013 104.664 197.638 104.505C202.146 104.038 206.52 102.693 210.513 100.547C222.146 94.1888 226.846 83.7557 227.954 71.2393C228.121 69.3227 227.921 67.356 225.896 66.3477ZM124.506 178.995C107.098 165.312 98.6565 160.804 95.1732 160.996C91.9066 161.196 92.4983 164.921 93.215 167.354C93.9649 169.754 94.9399 171.404 96.3066 173.512C97.2565 174.904 97.9065 176.979 95.3649 178.537C89.7567 182.004 80.0152 177.371 79.5569 177.146C68.2154 170.462 58.724 161.646 52.0491 149.588C45.5992 137.98 41.8493 125.53 41.2327 112.238C41.066 109.022 42.0076 107.889 45.2076 107.305C49.4084 106.501 53.7126 106.392 57.949 106.98C75.7153 109.58 90.8317 117.522 103.515 130.096C110.748 137.263 116.223 145.821 121.864 154.188C127.864 163.071 134.314 171.537 142.531 178.47C145.431 180.904 147.739 182.754 149.955 184.112C143.272 184.862 132.123 185.029 124.506 178.995ZM132.839 125.33C132.838 124.916 132.937 124.508 133.129 124.141C133.32 123.774 133.598 123.459 133.939 123.224C134.279 122.988 134.672 122.839 135.083 122.789C135.494 122.74 135.911 122.791 136.297 122.938C136.79 123.115 137.216 123.441 137.515 123.872C137.813 124.302 137.971 124.814 137.964 125.338C137.965 125.677 137.899 126.012 137.769 126.324C137.64 126.637 137.449 126.92 137.208 127.159C136.968 127.397 136.683 127.585 136.369 127.711C136.055 127.838 135.719 127.901 135.381 127.896C135.045 127.898 134.712 127.832 134.402 127.703C134.092 127.574 133.811 127.384 133.575 127.145C133.339 126.906 133.153 126.623 133.028 126.311C132.903 125.999 132.834 125.666 132.839 125.33ZM158.755 138.63C157.089 139.305 155.43 139.888 153.839 139.963C151.444 140.046 149.095 139.299 147.189 137.846C144.906 135.93 143.272 134.863 142.589 131.53C142.353 129.901 142.398 128.244 142.722 126.63C143.306 123.905 142.656 122.155 140.731 120.572C139.172 119.272 137.181 118.913 134.997 118.913C134.25 118.87 133.524 118.647 132.881 118.263C131.964 117.813 131.214 116.68 131.931 115.28C132.164 114.83 133.264 113.73 133.531 113.53C136.497 111.847 139.922 112.397 143.081 113.663C146.014 114.863 148.231 117.063 151.422 120.18C154.68 123.938 155.272 124.98 157.13 127.797C158.597 130.005 159.93 132.271 160.839 134.863C161.397 136.488 160.68 137.813 158.755 138.63Z" fill="#4D6BFE"/>
</g>
<defs>
<clipPath id="clip0_821_7">
<rect width="256" height="256" fill="white"/>
</clipPath>
</defs>
</svg>
